<?xml version="1.0" encoding="UTF-8" standalone="no"?>
<!-- Created with Inkscape (http://www.inkscape.org/) -->

<svg
   version="1.1"
   id="svg1"
   width="189.03822"
   height="152.45882"
   viewBox="0 0 189.03822 152.45882"
   xmlns="http://www.w3.org/2000/svg"
   xmlns:svg="http://www.w3.org/2000/svg">
  <defs
     id="defs1" />
  <g
     id="g1"
     transform="translate(-149.79619,-59.754402)">
    <path
       style="fill:#000000;fill-opacity:1;stroke-width:63.3638;stroke-dasharray:none"
       d="m 168.0026,203.15241 v -9.06109 h -9.05128 c -5.85484,0 -9.08757,-0.0587 -9.15403,-0.16626 -0.068,-0.11007 2.99093,-0.16626 9.05128,-0.16626 h 9.15403 V 136.06708 78.375362 h -9.05128 c -5.85484,0 -9.08757,-0.05871 -9.15403,-0.166259 -0.068,-0.11007 2.99093,-0.166258 9.05128,-0.166258 h 9.15403 v -9.144221 c 0,-5.985308 0.0574,-9.144221 0.16626,-9.144221 0.10883,0 0.16626,3.158913 0.16626,9.144221 v 9.144221 h 75.98017 75.98016 v -9.144221 c 0,-5.985308 0.0574,-9.144221 0.16626,-9.144221 0.10883,0 0.16626,3.158913 0.16626,9.144221 v 9.144221 h 9.15403 c 6.06036,0 9.11931,0.05619 9.05128,0.166258 -0.0665,0.107545 -3.29918,0.166259 -9.15403,0.166259 h -9.05128 v 18.873937 18.873941 l -3.20048,-0.0452 -3.20048,-0.0452 -0.0424,-15.81664 -0.0424,-15.816631 -69.78619,0.0842 c -38.38241,0.0463 -69.80538,0.10035 -69.82883,0.12011 -0.0234,0.0198 -0.0608,23.203591 -0.0831,51.519611 l -0.0405,51.48368 h 42.67684 42.67684 l 2.71175,1.06705 c 1.49146,0.58687 5.01769,1.97098 7.83607,3.07578 l 5.12433,2.00873 h 22.43303 22.43303 v -24.19062 -24.19062 h -2.9137 -2.9137 l -10.60123,7.98041 c -5.83067,4.38923 -10.67614,7.98041 -10.7677,7.98041 -0.0916,0 -1.65981,-0.85397 -3.48501,-1.89773 l -3.31853,-1.89773 -0.0493,1.27088 c -0.0367,0.94759 0.0105,1.31458 0.18576,1.44271 0.12925,0.0945 1.21397,0.7262 2.41048,1.40375 1.19652,0.67755 2.14087,1.28792 2.09856,1.35638 -0.0679,0.10983 -1.44664,-0.61765 -3.93896,-2.07831 l -0.78972,-0.46284 v 10.2407 c 0,6.66422 -0.0576,10.2407 -0.165,10.2407 -0.10694,0 -0.18007,-3.63911 -0.20783,-10.34075 l -0.0428,-10.34076 -1.38574,-0.79857 c -0.76216,-0.43921 -1.4168,-0.79856 -1.45476,-0.79856 -0.038,0 -0.069,4.1149 -0.069,9.14422 0,5.98531 -0.0574,9.14422 -0.16625,9.14422 -0.10886,0 -0.16626,-3.20195 -0.16626,-9.27333 v -9.27333 l -5.36184,-3.05482 c -2.94901,-1.68015 -8.09828,-4.6147 -11.44283,-6.52123 l -6.08098,-3.46642 h -3.86278 c -2.57518,0 -3.82795,-0.0563 -3.7583,-0.16904 0.0694,-0.11233 4.47161,-0.16616 13.1234,-0.16047 12.8772,0.008 13.02866,0.005 13.91263,-0.34344 2.71461,-1.06924 5.83816,-3.69191 7.28857,-6.1198 1.37542,-2.30236 2.33369,-5.58604 2.33369,-7.99674 0,-1.48969 -0.48505,-3.95661 -1.06789,-5.4312 -1.52827,-3.86649 -4.47951,-6.94836 -8.13106,-8.49093 l -1.30166,-0.54988 H 265.4949 c -11.95967,0 -12.71627,0.0172 -12.80284,0.29095 -0.4878,1.54258 -1.11448,2.2068 -2.40866,2.55293 -0.55624,0.14878 -0.9433,0.15641 -1.44705,0.0285 -0.50096,-0.12716 -0.72791,-0.12325 -0.83582,0.0144 -0.0815,0.10392 -1.48037,2.54566 -3.10868,5.42609 -1.62831,2.88043 -4.678,8.26721 -6.7771,11.97062 -2.09909,3.70341 -5.31314,9.38945 -7.14231,12.63565 -1.82918,3.2462 -3.41484,5.99819 -3.52369,6.11555 -0.20805,0.22431 -0.0768,0.44246 -11.73009,-19.49936 -11.75196,-20.1107 -11.32832,-19.41076 -11.55217,-19.08647 -0.11362,0.16459 -0.86342,1.42149 -1.66623,2.79313 -0.8028,1.37163 -2.8605,4.888 -4.57267,7.81415 -1.71216,2.92615 -3.70574,6.33029 -4.43018,7.56476 -5.11153,8.7102 -4.64486,7.82021 -4.25943,8.12319 0.47585,0.37406 1.04193,1.35713 1.04268,1.81076 l 6.2e-4,0.37409 h 8.38246 c 4.61035,0 8.51951,0.0561 8.68701,0.12469 0.1675,0.0686 -3.57417,0.1621 -8.31483,0.20782 l -8.61938,0.0831 -0.22528,0.65542 c -0.61294,1.78327 -2.17678,2.66189 -3.85555,2.16621 l -0.66124,-0.19524 -1.35782,2.30293 c -0.74679,1.26661 -1.43714,2.30293 -1.53409,2.30293 -0.097,0 -0.027,-0.24315 0.15547,-0.54034 0.18246,-0.29719 0.71279,-1.20178 1.17851,-2.0102 0.46571,-0.80842 0.9557,-1.62539 1.08885,-1.81549 0.22266,-0.3179 0.19666,-0.39594 -0.32389,-0.97213 -0.31129,-0.34456 -0.65704,-0.93039 -0.76833,-1.30185 l -0.20235,-0.67537 h -2.05191 c -1.31678,0 -2.05192,-0.0623 -2.05192,-0.17384 0,-0.11277 0.70417,-0.16473 2.00447,-0.14791 1.10245,0.0143 2.02438,-10e-4 2.04873,-0.034 0.0243,-0.0329 0.17576,-0.41479 0.33648,-0.84852 0.5494,-1.48272 2.17492,-2.34944 3.69057,-1.9678 0.42455,0.10691 0.7881,0.1723 0.8079,0.14532 0.0198,-0.027 0.42452,-0.7224 0.89938,-1.54538 4.27726,-7.41288 14.62483,-24.92768 14.74693,-24.96135 0.0852,-0.0235 1.66296,2.55312 3.5061,5.72584 1.84313,3.17271 5.2787,9.06049 7.63459,13.08395 2.35589,4.02345 5.94423,10.15511 7.9741,13.6259 2.02986,3.47079 3.75662,6.33147 3.83725,6.35708 0.0806,0.0256 0.8503,-1.20559 1.7104,-2.73597 0.8601,-1.53039 2.47527,-4.39107 3.58926,-6.35708 7.17113,-12.65579 8.85136,-15.62204 11.67799,-20.61606 1.73384,-3.06331 3.24511,-5.74514 3.35837,-5.95961 0.17938,-0.33969 0.16093,-0.42146 -0.14317,-0.63446 -0.41386,-0.28988 -1.00966,-1.39838 -1.00966,-1.87849 0,-0.32765 -0.093,-0.33914 -2.74327,-0.33914 -1.718,0 -2.74326,-0.0621 -2.74326,-0.16626 0,-0.10393 0.99929,-0.16626 2.66535,-0.16626 1.9873,0 2.68164,-0.0529 2.72938,-0.20782 0.0352,-0.11431 0.10876,-0.4122 0.16344,-0.66199 0.13329,-0.60887 1.0436,-1.62074 1.7077,-1.89822 0.63049,-0.26344 1.93349,-0.29579 2.37595,-0.059 0.27346,0.14635 0.44996,-0.08 1.51625,-1.94412 0.66372,-1.16037 1.2349,-2.02532 1.2693,-1.92212 0.0344,0.1032 -0.43398,1.06224 -1.04084,2.13119 l -1.10339,1.94355 0.52215,0.53873 c 0.28719,0.2963 0.61901,0.86676 0.73737,1.26769 l 0.21521,0.72897 12.86672,0.0831 12.86671,0.0831 1.13712,0.48084 c 3.88571,1.64313 7.26064,5.35585 8.55524,9.41154 0.58661,1.83773 0.76626,3.00568 0.75439,4.90463 -0.0221,3.53947 -1.05102,6.49119 -3.30335,9.47674 -0.4829,0.64009 -1.03145,1.29136 -1.21901,1.44726 -1.59731,1.3277 -2.32485,1.86262 -3.3386,2.45469 -2.21642,1.29445 -1.86838,1.24275 -8.98674,1.33519 l -6.40096,0.0831 8.06354,4.59226 c 4.43495,2.52574 8.23188,4.67934 8.43763,4.78578 l 0.37408,0.19353 v -3.92274 c 0,-2.57282 0.0572,-3.88738 0.16626,-3.81998 0.10328,0.0638 0.16625,1.59844 0.16625,4.05178 v 3.94904 l 1.39993,0.77952 c 0.76996,0.42874 1.4433,0.77952 1.49633,0.77952 0.053,0 0.0964,-1.34669 0.0964,-2.99265 0,-1.88426 0.0616,-2.99266 0.16626,-2.99266 0.10499,0 0.16626,1.16094 0.16626,3.1503 v 3.15029 l 3.38252,1.92059 c 1.86038,1.05633 3.43531,1.9206 3.49984,1.9206 0.0645,0 4.77259,-3.50465 10.46235,-7.78812 5.68976,-4.28346 10.50671,-7.87465 10.70433,-7.98041 0.37783,-0.20221 5.61052,-0.28055 6.10349,-0.0914 0.23815,0.0914 0.26299,2.39199 0.26299,24.35688 v 24.25596 h 9.15403 c 6.06036,0 9.11931,0.0562 9.05128,0.16626 -0.0665,0.10755 -3.29918,0.16626 -9.15403,0.16626 H 320.628 v 9.06109 c 0,5.92989 -0.0574,9.06109 -0.16626,9.06109 -0.1088,0 -0.16626,-3.1312 -0.16626,-9.06109 v -9.06109 h -75.98016 -75.98017 v 9.06109 c 0,5.92989 -0.0575,9.06109 -0.16626,9.06109 -0.1088,0 -0.16626,-3.1312 -0.16626,-9.06109 z m 6.15157,-12.30313 v -2.90953 h -2.90952 -2.90953 v 2.90953 2.90952 h 2.90953 2.90952 z m 111.69119,-32.28748 -0.0486,-1.28026 -1.38574,-0.79797 c -0.76216,-0.43889 -1.4168,-0.79798 -1.45476,-0.79798 -0.038,0 -0.0684,0.57983 -0.0676,1.28851 l 10e-4,1.2885 1.37022,0.78501 c 0.75362,0.43175 1.42948,0.78713 1.50191,0.78973 0.0724,0.003 0.10983,-0.5714 0.0831,-1.27554 z m -3.2906,-1.84376 v -1.29518 l -4.1149,-2.34434 c -2.2632,-1.28938 -6.23029,-3.54958 -8.81577,-5.02265 l -4.70087,-2.67831 -2.28199,0.01 c -1.56483,0.007 -2.20362,0.0615 -2.0326,0.17422 0.55953,0.36896 21.70626,12.41933 21.82143,12.43485 0.0686,0.009 0.1247,-0.56603 0.1247,-1.27837 z m -94.56535,-8.67807 c 0.66228,-0.005 1.95932,-1.54661 1.95932,-2.32836 0,-0.32816 -0.0758,-0.34481 -1.36322,-0.29921 l -1.36322,0.0483 -0.62843,1.08068 c -0.34563,0.59438 -0.6051,1.1555 -0.5766,1.24694 0.0645,0.2069 0.90845,0.40544 1.35447,0.31864 0.18288,-0.0356 0.46084,-0.0657 0.61768,-0.067 z m -1.75087,-1.51096 c 0.29609,-0.49613 0.54125,-0.95817 0.54481,-1.02675 0.004,-0.0686 -0.55465,-0.1247 -1.24047,-0.1247 -1.38894,0 -1.46604,0.0826 -0.9775,1.04737 0.35647,0.70395 0.74629,1.13565 0.9609,1.06411 0.0957,-0.0319 0.41618,-0.4639 0.71226,-0.96003 z m 0.16799,-1.47124 c 0.67952,-0.0124 0.71454,-0.0414 1.36718,-1.13111 0.36903,-0.6162 0.60617,-1.182 0.52812,-1.26006 -0.26224,-0.26224 -1.49549,-0.32867 -2.04921,-0.11039 -0.95819,0.37773 -1.95668,1.55457 -1.95668,2.30619 0,0.16161 0.70032,0.30781 1.16381,0.24297 0.13717,-0.0192 0.56322,-0.0406 0.94678,-0.0476 z m 2.7129,-0.0127 h 0.97235 l -0.14794,-0.51586 c -0.15207,-0.53023 -0.91856,-1.6482 -1.12581,-1.64206 -0.18242,0.005 -1.34057,2.05873 -1.24698,2.21081 0.046,0.0748 0.19447,0.0935 0.32987,0.0416 0.13539,-0.052 0.68372,-0.0945 1.21851,-0.0945 z m 61.46129,-26.44619 c 0.8223,-0.31156 1.46917,-1.07435 1.78825,-2.10872 0.11368,-0.36852 0.0936,-0.37404 -1.35057,-0.37126 l -1.46597,0.003 -0.62347,1.15531 c -0.34291,0.63541 -0.62347,1.18978 -0.62347,1.23192 0,0.26364 1.64514,0.32867 2.27523,0.0899 z m -1.91403,-1.40707 0.61058,-1.07573 h -1.31718 c -0.72445,0 -1.31718,0.0398 -1.31718,0.0885 0,0.48124 1.02065,2.08328 1.31748,2.06794 0.0526,-0.003 0.37048,-0.48902 0.7063,-1.08068 z m 1.45327,-2.58667 c 0.37368,-0.64812 0.67941,-1.20573 0.67941,-1.23912 0,-0.0334 -0.2782,-0.13753 -0.61823,-0.23141 -1.47247,-0.40657 -3.06411,0.60842 -3.43691,2.19174 l -0.10766,0.45721 h 1.40199 1.402 z m 2.26677,0.72121 c -0.16835,-0.69176 -0.90707,-1.73207 -1.18797,-1.673 -0.13594,0.0286 -0.51019,0.51958 -0.83168,1.09109 l -0.58452,1.03912 h 1.35772 1.35772 z m -78.2702,-34.083011 0.0455,-2.867957 h -2.91345 -2.91345 v 2.913447 2.91345 l 2.86796,-0.0455 2.86796,-0.0455 z m 140.19361,1.70333 v -1.24777 l -16.08313,0.0424 -16.08314,0.0424 -0.0201,0.99755 c -0.011,0.54866 0.0146,1.09108 0.057,1.20538 0.0609,0.16429 3.43419,0.20782 16.1032,0.20782 h 16.02616 z m 0,-1.66176 c 0,-0.21997 -1.90273,-0.24939 -16.12708,-0.24939 -8.86989,0 -16.12708,0.0623 -16.12708,0.13855 0,0.0762 0.0499,0.18842 0.11084,0.24939 0.061,0.061 7.31815,0.11084 16.12708,0.11084 14.12582,0 16.01624,-0.0294 16.01624,-0.24939 z m 0,-1.746544 v -1.330916 l -16.07777,0.04239 -16.07777,0.04239 -0.0639,1.047429 c -0.0351,0.576086 -0.0223,1.155913 0.0286,1.288507 0.0799,0.20829 2.2751,0.24107 16.14167,0.24107 h 16.04917 z"
       id="path1" />
  </g>
</svg>
